<svg preserveAspectRatio="none" width="100%" height="100%" overflow="visible" style="display: block;" viewBox="0 0 160 160" fill="none" xmlns="http://www.w3.org/2000/svg">
<g id="Frame 8">
<circle id="Ellipse 4" cx="80" cy="80" r="79" stroke="var(--stroke-0, #D9D9D9)" stroke-width="2"/>
<g id="brain-solid-full 1">
<path id="Vector" d="M63 55C63 51.1375 66.1375 48 70 48H73C75.2125 48 77 49.7875 77 52V108C77 110.213 75.2125 112 73 112H69C65.275 112 62.1375 109.45 61.25 106C61.1625 106 61.0875 106 61 106C55.475 106 51 101.525 51 96C51 93.75 51.75 91.675 53 90C50.575 88.175 49 85.275 49 82C49 78.1375 51.2 74.775 54.4 73.1125C53.5125 71.6125 53 69.8625 53 68C53 62.475 57.475 58 63 58V55ZM97 55V58C102.525 58 107 62.475 107 68C107 69.875 106.487 71.625 105.6 73.1125C108.812 74.775 111 78.125 111 82C111 85.275 109.425 88.175 107 90C108.25 91.675 109 93.75 109 96C109 101.525 104.525 106 99 106C98.9125 106 98.8375 106 98.75 106C97.8625 109.45 94.725 112 91 112H87C84.7875 112 83 110.213 83 108V52C83 49.7875 84.7875 48 87 48H90C93.8625 48 97 51.1375 97 55Z" fill="var(--fill-0, white)"/>
</g>
</g>
</svg>
